<?xml version="1.0" encoding="UTF-8"?>
<svg width="196.27" style="fill:#ffc844;" height="215.97" viewBox="-0.384 -0.242 511 453" xmlns="http://www.w3.org/2000/svg">
 <path d="m103.83-52.306-3.7073 0.32238-4.6745 0.80594-5.964 1.4507-3.8685 1.2895-2.982 0.96713-6.2864 2.7402-4.2715 2.2566-3.1432 1.8537-3.9491 3.1432-1.1283 10.397-0.16119 3.7074v2.8208c-4.6422 2.971-8.6906 6.6655-11.847 11.122l-2.4178 3.1432h14.426l10.236 16.925v4.8357c-0.37138 6.3134 1.8788 12.419 5.964 17.247 1.2998 1.4855 2.7615 2.8105 4.4327 4.1103 2.0426 1.2998 4.4365 1.8292 6.8505 2.0149l3.385 0.16119c2.5996 1.4855 4.1103 4.5242 4.1103 7.4953v4.0297l-0.40297 0.56416-8.14 8.3818c-3.1567 3.7138-6.739 7.0543-10.638 10.397-4.6422 3.8995-8.7222 8.5262-12.25 13.54-2.5996 3.8995-3.7248 8.7119-2.982 13.54l5.8028 39.572 3.8685 36.026 0.40297 6.1252-4.2715 8.946-9.8325 26.354-6.9311 25.065c-1.2998 3.5281-1.8292 7.2225-2.0149 11.122l-0.16119 2.982c0.55707 4.4566 1.4404 8.7293 2.7402 12.815 1.1141 3.1567 2.993 5.7434 5.964 7.4147 4.0852 2.414 9.3006 3.178 13.943 1.6925 3.8995-1.1141 6.2864-4.4579 6.2864-8.543v-0.96714l-0.16119-1.1283 14.829-28.208 21.196-41.426 27.08-51.177 10.961 4.4327c-5.5707 9.2845-10.537 18.762-13.137 23.775-6.4991 12.998-12.998 25.965-23.211 46.019h0.16119c-2.5997 5.1993-5.0498 10.387-7.0923 15.958-1.8569 4.6422-3.7041 9.0833-5.561 13.54-1.1141 2.7853-2.2147 5.572-3.1432 8.543-0.74276 2.2283-0.77438 4.6784-0.40298 7.0923 1.1141 5.5707 3.5713 10.807 7.6565 15.635 13.927 17.641 26.882 35.832 38.766 54.401 8.9131 13.927 14.872 29.108 18.214 44.891 0.55707 2.414 0.96711 4.8151 0.96714 7.4147 0 6.6848-2.0574 13.208-5.3998 18.778-2.7854 4.6422-6.1432 9.0833-9.6713 13.54-2.971 3.5281-4.0716 8.1968-3.1432 12.653l0.72535 2.0149c-14.112 7.4276-27.685 15.644-41.426 24.742l-17.086 11.283c-4.2709 2.971-8.7119 5.3721-13.54 7.4147-7.799 3.5281-16.176 5.3998-24.904 5.3998-6.4991 0-13.19-1.0761-19.504-3.3044-3.5281-1.1141-6.8544-3.2031-9.2684-5.8028l-4.5939-4.8357c-0.37138-0.74276-1.1109-1.2405-1.8537-1.6119-2.971-1.4855-6.4901-2.0323-9.8325-1.2895-2.7853 0.55707-4.6429 3.098-4.2715 5.8834 1.2998 11.884 8.5166 22.315 19.101 27.886 17.083 9.2845 37.85 8.7377 54.562-1.2895l11.364-6.9311 27.644-14.829 43.843-23.372 43.44-22.486 96.391-48.115c-0.37138 2.5997-0.78142 5.4353-0.96714 8.2206-0.18569 2.971-1.2618 5.9118-3.3044 8.14-1.4855 2.0426-3.0278 4.2438-4.5133 6.2864-2.5996 4.2709-4.6397 8.5508-6.1252 13.379-0.92845 2.971-0.87233 6.1606 0.24179 8.946l1.2895 3.1432c-2.0426 1.6712-3.8898 3.3186-5.561 4.4327-7.2419 4.8279-14.301 9.879-21.358 15.635-8.1703 6.1278-16.369 12.279-25.468 18.778-4.2709 2.971-8.5192 5.8873-12.976 8.3012-4.8279 2.7854-10.194 4.2715-15.394 4.2715h-1.3701c-3.5281 0-7.0298-0.14381-10.558-0.88654-4.6422-1.1141-9.0517-2.8002-13.137-5.3998-2.414-1.4855-4.454-3.3327-6.1252-5.561-1.2998-1.4855-2.8421-2.7789-4.5133-3.7073-2.2283-1.1141-4.6538-2.022-7.2535-2.579-2.414-0.55707-5.1374-0.58155-7.7371 0.16119-1.1141 0.37137-2.2463 0.73246-3.5462 1.2895-0.92844 0.37138-1.6925 1.3037-1.6925 2.4178-0.18569 1.6712 0.03159 3.3257 0.40297 4.9969 3.3424 11.513 11.152 20.994 21.922 26.193 7.2419 3.5281 14.985 5.4069 22.969 5.964 13.184 0.92845 26.352-2.815 36.751-10.8l226.39-167.64-11.686-12.815-95.101 69.956c-3.3424-4.8279-6.6513-9.4373-9.9937-14.265-2.971-4.4566-6.7145-8.7538-10.8-12.653-5.0136-5.0136-8.75-11.344-10.236-18.214-3.1567-14.298-9.0278-27.632-17.57-39.33-6.1278-8.356-14.522-14.879-24.178-18.779-1.8569-0.74276-3.7041-1.8434-5.561-3.1432-1.1141-0.92845-2.2147-2.2463-3.1432-3.5462-3.7138-6.1278-5.8028-13.148-5.8028-20.39 0-2.2283 0.19276-4.6222 0.56417-6.8505l2.8208-18.214c2.2283-17.455 4.4817-34.935 4.1103-31.593 0.55707-5.1993 1.1038-10.355 1.2895-15.555 0-0.74276-3e-5 -1.5384 0-2.0955 0-7.799-1.7034-15.622-4.6745-23.05-0.37138-1.1141-0.89363-2.1657-1.4507-3.4656-1.1141-2.971-2.6003-5.7822-4.2715-8.3818-1.4856-2.2283-3.2206-4.6784-5.0775-7.0923-1.6712-2.2283-3.5184-4.0265-5.561-5.8834l-2.4178-2.0955c7.4276 1.1141 15.058 1.9098 22.486 2.0955h2.2566l6.6893 27.08 2.579 10.074 3.1432 11.686 2.2566 9.1072 2.0149 9.0266c1.8569 5.1993 2.8208 10.79 2.8208 16.361 0 2.2283 0.36106 4.6468 1.2895 6.6893 1.2998 3.8995 3.1155 7.4327 5.158 10.961 1.4855 2.2283 3.196 4.2683 5.2386 6.1252 0.92845 0.92845 1.8679 1.6435 2.982 2.0149 0.74276 0.18569 1.2721 0.56413 2.0149 0.56416 1.2998 0.18569 2.432 0.049 3.5462-0.32238 3.7138-1.2998 7.0085-4.1039 8.8654-7.8177l0.96714-1.8537 149.1 77.612c-2.414 4.4566-3.1606 9.6546-2.4178 14.668 0.37138 2.5997 1.5281 4.9936 3.385 6.8505 1.2998 1.2998 3.0838 1.9027 4.7551 1.5313 6.1278-1.2998 11.568-4.875 14.91-10.074l0.72535-1.2895 15.394 1.5313-8.8654-11.767c2.0426-4.2709 3.1432-8.8732 3.1432-13.701 0-0.92844 0.02447-1.8434-0.16119-3.1432-0.18569-1.8569-1.118-3.7531-2.4178-5.2386-1.4855-1.4855-3.7602-2.169-5.8028-1.6119-5.1993 0.92845-9.8506 3.6764-13.379 7.5759l-2.4178 2.579-153.53-80.03c0-0.37138-2e-5 -0.9181 0-1.2895 0-3.7138-1.1567-7.2644-3.385-10.235-1.4855-1.8569-2.7299-3.8408-4.0297-5.8834-1.4855-2.414-2.474-5.0078-2.6596-7.9788l-1.4507-11.767-2.982-25.548c-1.1141-6.1278-1.9904-12.328-2.176-18.456l-0.24178-4.9968c0-0.37138-3e-5 -0.51514 0-0.88654 0-4.0852-0.88329-7.8357-2.7402-11.364-3.5281-7.0562-8.5404-13.176-14.668-18.376l-7.6565-6.2864-11.122-9.5101-9.8325-8.14c-8.1704-5.9421-16.513-11.883-26.354-18.94-2.971-2.2283-5.7648-4.1387-9.1072-6.367-6.8705-4.6422-14.098-8.1194-22.083-10.719-10.956-3.5281-22.337-5.9221-33.85-6.8505-7.9846-0.55707-15.398-3.1928-22.083-7.0923-3.1567-1.8569-5.9678-3.9285-8.3818-6.5282-5.7564-5.385-9.2264-12.616-10.155-20.229-0.55707-4.8279-1.3037-9.4373-2.4178-14.265-2.0426-10.213-5.9788-19.859-11.364-28.772l-4.0297-6.6893h-9.6713zm17.973 184.96-0.16119 0.40298 10.8 4.4327-29.014 57.141-25.065 50.13-0.56416-7.2535 2.0149-2.7402c3.3424-4.6422 6.2026-9.4689 8.0594-14.668 4.0852-10.213 8.5262-19.922 13.54-29.578 2.2283-4.6423 4.2367-9.7913 5.7222-14.991 4.2296-14.712 9.0044-28.678 14.507-42.473l-0.16119-0.0806 0.32238-0.32238zm81.884 69.069-0.16118 3.8685c0.18568 24.511 4.6758 48.833 13.217 71.487 2.7853 7.2419 7.9834 13.348 14.668 17.247 8.7274 5.385 17.073 11.915 24.501 19.343 2.7853 2.971 5.8944 5.7577 8.8654 8.543 12.998 11.513 23.577 25.642 31.19 41.426l-79.224 34.897-1.8537-5.2386c-3.7138-10.399-9.8512-19.628-17.65-27.241-1.6712-1.4855-2.6422-3.3817-3.385-5.2386l-1.2895-5.158c-2.414-9.0988-4.454-18.198-6.1252-27.483-1.6712-8.7274-3.7357-16.702-5.964-24.501-2.2283-7.4276-4.9588-14.326-8.3012-21.196-5.385-10.399-13.184-19.316-23.211-25.629l2.7402-2.2566c18.94-16.341 36.2-33.93 51.983-52.87z"/>
</svg>
